<?xml version="1.0" encoding="UTF-8"?>
<svg id="Layer_1" data-name="Layer 1" xmlns="http://www.w3.org/2000/svg" viewBox="0 0 1019.05 1022.92">
  <defs>
    <style>
      .cls-1 {
        fill: none;
      }

      .cls-2 {
        fill: #FFD400;
      }

      .cls-3 {
        fill: #fff;
      }
    </style>
  </defs>
  <path class="cls-1" d="M510.77,1022.92c-69.77,0-136.62-13.53-198.68-40.22-61.85-26.56-116.53-63.36-162.51-109.37-46-45.97-82.8-100.65-109.36-162.52C13.53,648.76,0,581.46,0,510.78s13.53-136.6,40.22-198.68c26.56-61.83,63.36-116.51,109.37-162.51,45.98-45.98,100.65-82.77,162.51-109.37C374.21,13.53,441.05,0,510.77,0c61.94,0,121.43,10.59,176.81,31.47,55.05,20.78,105.27,49.69,149.27,85.95,44.07,36.32,81.63,79.77,111.64,129.14,30.09,49.54,51.24,104.1,62.86,162.19l7.69,38.44h-293.21l-8.19-19.9c-16.91-41.06-43.4-73.8-81-100.09-37.22-26-78.4-38.65-125.87-38.65-31.02,0-60.36,5.81-87.23,17.25-27.05,11.54-51.03,27.65-71.24,47.86-20.28,20.28-36.41,44.07-47.93,70.72-11.4,26.35-17.19,55.42-17.19,86.39s5.8,60.4,17.25,87.21c11.52,27.05,27.62,51.01,47.87,71.26,20.25,20.25,44.22,36.36,71.24,47.87,26.83,11.45,56.18,17.26,87.24,17.26,47.5,0,88.67-12.64,125.87-38.65,37.53-26.22,64-59.34,80.92-101.25l8.12-20.1h293.37l-7.69,38.44c-11.61,58.05-32.74,112.81-62.78,162.74-30.01,49.86-67.59,93.58-111.71,129.94-44.05,36.3-94.27,65.21-149.28,85.96-55.31,20.88-114.8,31.47-176.81,31.47ZM510.77,64.27c-60.94,0-119.25,11.78-173.3,35-54.33,23.35-102.26,55.57-142.44,95.76-40.21,40.21-72.43,88.14-95.76,142.45-23.22,54.02-35,112.32-35,173.3s11.77,120.66,34.99,174.66c23.34,54.34,55.55,102.26,95.76,142.45,40.2,40.22,88.12,72.44,142.44,95.77,54.01,23.23,112.31,35,173.31,35,54.23,0,106.08-9.2,154.12-27.33,48.4-18.25,92.5-43.63,131.09-75.42,38.47-31.71,71.28-69.89,97.52-113.49,19.5-32.41,34.7-67.18,45.39-103.77h-170.73c-21.68,44.09-53.46,80.94-94.72,109.77-47.68,33.33-102.42,50.23-162.68,50.23-39.79,0-77.62-7.54-112.45-22.41-34.6-14.74-65.39-35.45-91.48-61.54-26.08-26.08-46.79-56.86-61.54-91.49-14.86-34.81-22.4-72.64-22.4-112.42s7.56-77.46,22.47-111.91c14.75-34.11,35.44-64.61,61.47-90.64,26.05-26.05,56.83-46.76,91.48-61.54,34.89-14.87,72.72-22.4,112.44-22.4,60.23,0,114.96,16.9,162.68,50.24,41.16,28.77,72.89,65.17,94.55,108.4h170.88c-10.68-36.43-25.85-70.94-45.31-102.98-26.26-43.19-59.1-81.18-97.59-112.91-38.55-31.76-82.66-57.14-131.08-75.42-48.1-18.14-99.96-27.33-154.12-27.33Z"/>
  <path class="cls-3" d="M777.69,566.37c-6.32,31.6-17.65,60.97-33.97,88.09-16.33,27.14-36.48,50.57-60.44,70.32-23.98,19.76-50.96,35.3-80.98,46.62-30.02,11.33-61.9,16.99-95.6,16.99-37.93,0-73.75-7.24-107.45-21.73-33.72-14.48-63.09-34.23-88.1-59.25-25.02-25.01-44.78-54.38-59.26-88.1-14.49-33.71-21.73-69.79-21.73-108.24s7.23-73.74,21.73-107.45c14.48-33.7,34.23-63.07,59.26-88.1,25.01-25.01,54.38-44.76,88.1-59.26,33.7-14.48,69.53-21.73,107.45-21.73,33.7,0,65.58,5.67,95.6,16.99,30.02,11.33,57.01,26.86,80.98,46.62,23.96,19.75,44.11,43.06,60.44,69.92,16.32,26.86,27.65,56.09,33.97,87.7h-134.31c-11.06-26.86-28.84-48.85-53.33-65.97-24.49-17.11-52.28-25.68-83.35-25.68-20.54,0-39.78,3.83-57.68,11.46-17.91,7.64-33.58,18.17-47.01,31.6-13.43,13.43-23.98,28.97-31.6,46.62-7.64,17.65-11.46,36.74-11.46,57.28s3.81,39.78,11.46,57.68c7.63,17.91,18.17,33.58,31.6,47.01,13.43,13.43,29.1,23.98,47.01,31.61,17.9,7.64,37.14,11.45,57.68,11.45,31.07,0,58.86-8.55,83.35-25.67,24.49-17.11,42.27-39.37,53.33-66.76h134.31Z"/>
  <path class="cls-1" d="M506.69,796.57c-38.89,0-76.13-7.54-110.68-22.4-34.51-14.82-65.01-35.34-90.65-60.99-25.64-25.63-46.16-56.13-60.99-90.65-14.86-34.55-22.39-72.06-22.39-111.47s7.53-76.12,22.39-110.68c14.83-34.51,35.35-65.01,60.99-90.65,25.63-25.63,56.13-46.15,90.65-60.99,34.58-14.86,71.82-22.39,110.68-22.39,34.53,0,67.67,5.89,98.49,17.51,30.73,11.6,58.75,27.74,83.3,47.96,24.56,20.24,45.5,44.46,62.23,71.99,16.75,27.57,28.53,57.97,35.01,90.34l1.96,9.78h-149.77l-2.09-5.06c-10.41-25.26-27.38-46.25-50.46-62.38-22.99-16.06-49.45-24.2-78.67-24.2-19.33,0-37.66,3.63-54.47,10.8-16.86,7.19-31.81,17.24-44.43,29.86-12.65,12.65-22.7,27.48-29.88,44.08-7.16,16.53-10.79,34.71-10.79,54.03s3.63,37.68,10.8,54.47c7.18,16.84,17.22,31.79,29.87,44.43,12.64,12.64,27.59,22.69,44.43,29.87,16.79,7.17,35.12,10.8,54.47,10.8,29.23,0,55.7-8.14,78.67-24.2,23.05-16.11,40.02-37.35,50.44-63.12l2.07-5.12h149.81l-1.96,9.78c-6.48,32.37-18.25,62.89-34.99,90.71-16.73,27.8-37.67,52.16-62.25,72.41-24.56,20.24-52.59,36.38-83.3,47.96-30.79,11.62-63.93,17.51-98.49,17.51ZM506.69,242.71c-36.63,0-71.7,7.09-104.22,21.06-32.61,14.02-61.39,33.37-85.54,57.53-24.17,24.17-43.52,52.95-57.53,85.54-13.98,32.51-21.06,67.58-21.06,104.22s7.09,72.51,21.06,105.01c14.01,32.61,33.36,61.39,57.53,85.54,24.16,24.17,52.94,43.52,85.54,57.52,32.51,13.98,67.57,21.07,104.23,21.07,32.58,0,63.77-5.54,92.71-16.46,29.03-10.95,55.49-26.19,78.67-45.28,23.14-19.06,42.86-42.02,58.63-68.22,14.07-23.38,24.42-48.8,30.82-75.7h-118.73c-11.74,26.47-29.91,48.41-54.07,65.29-25.77,18.01-55.39,27.15-88.04,27.15-21.57,0-42.06-4.07-60.89-12.11-18.78-8-35.46-19.22-49.58-33.35-14.13-14.13-25.35-30.81-33.35-49.59-8.04-18.82-12.11-39.31-12.11-60.88s4.08-41.94,12.13-60.53c8-18.5,19.21-35.04,33.33-49.15,14.11-14.11,30.79-25.33,49.58-33.34,18.86-8.04,39.34-12.11,60.89-12.11,32.63,0,62.25,9.14,88.04,27.15,24.13,16.87,42.28,38.55,54.02,64.5h118.77c-6.4-26.85-16.74-52.13-30.8-75.27-15.78-25.95-35.51-48.78-58.65-67.86-23.16-19.08-49.63-34.31-78.67-45.28-28.97-10.92-60.16-16.46-92.71-16.46Z"/>
  <path class="cls-2" d="M750.72,658.68c-16.73,27.8-37.67,52.16-62.25,72.41-24.56,20.24-52.59,36.38-83.3,47.96-30.79,11.62-63.93,17.51-98.49,17.51-38.89,0-76.13-7.54-110.68-22.4-34.51-14.82-65.01-35.34-90.65-60.99-25.64-25.63-46.16-56.13-60.99-90.65-14.86-34.55-22.39-72.06-22.39-111.47s7.53-76.12,22.39-110.68c14.83-34.51,35.35-65.01,60.99-90.65,25.63-25.63,56.13-46.15,90.65-60.99,34.58-14.86,71.82-22.39,110.68-22.39,34.53,0,67.67,5.89,98.49,17.51,30.73,11.6,58.75,27.74,83.3,47.96,24.56,20.24,45.5,44.46,62.23,71.99,9.82,16.16,17.92,33.3,24.25,51.24h204.89c-10.94-54.7-30.56-105.3-58.81-151.8-28.27-46.49-63.14-86.84-104.62-121.03-41.5-34.19-88.21-61.07-140.18-80.68-51.97-19.59-107.14-29.4-165.47-29.4-65.64,0-127.65,12.54-185.99,37.61-58.35,25.08-109.19,59.27-152.48,102.57-43.31,43.31-77.5,94.15-102.57,152.48-25.09,58.35-37.61,120.34-37.61,185.99s12.52,129.02,37.61,187.35c25.06,58.36,59.25,109.19,102.57,152.48,43.29,43.31,94.13,77.5,152.48,102.57,58.34,25.09,120.34,37.61,185.99,37.61,58.34,0,113.51-9.79,165.47-29.4,51.97-19.6,98.68-46.49,140.18-80.68,41.48-34.19,76.35-74.75,104.62-121.71,28.25-46.94,47.86-97.78,58.81-152.48h-204.66c-6.36,18.22-14.53,35.68-24.46,52.18Z"/>
</svg>